<svg width="191" height="191" viewBox="0 0 191 191" fill="none" xmlns="http://www.w3.org/2000/svg">
<path fill-rule="evenodd" clip-rule="evenodd" d="M95.5 0C42.7362 0 0 42.7362 0 95.5C0 137.759 27.3369 173.452 65.2981 186.106C70.0731 186.941 71.8637 184.076 71.8637 181.569C71.8637 179.301 71.7444 171.781 71.7444 163.782C47.75 168.199 41.5425 157.933 39.6325 152.561C38.5581 149.816 33.9025 141.34 29.8438 139.072C26.5013 137.281 21.7262 132.864 29.7244 132.745C37.245 132.626 42.6169 139.669 44.4075 142.534C53.0025 156.978 66.7306 152.919 72.2219 150.412C73.0575 144.205 75.5644 140.027 78.31 137.639C57.0613 135.252 34.8575 127.015 34.8575 90.4862C34.8575 80.1006 38.5581 71.5056 44.6463 64.8206C43.6913 62.4331 40.3488 52.6444 45.6013 39.5131C45.6013 39.5131 53.5994 37.0063 71.8637 49.3019C79.5037 47.1531 87.6212 46.0787 95.7387 46.0787C103.856 46.0787 111.974 47.1531 119.614 49.3019C137.878 36.8869 145.876 39.5131 145.876 39.5131C151.129 52.6444 147.786 62.4331 146.831 64.8206C152.919 71.5056 156.62 79.9812 156.62 90.4862C156.62 127.134 134.297 135.252 113.048 137.639C116.51 140.624 119.494 146.354 119.494 155.307C119.494 168.08 119.375 178.346 119.375 181.569C119.375 184.076 121.166 187.061 125.941 186.106C144.899 179.705 161.373 167.52 173.043 151.267C184.714 135.014 190.994 115.51 191 95.5C191 42.7362 148.264 0 95.5 0Z" fill="white"/>
</svg>
