<svg width="549" height="156" viewBox="0 0 549 156" fill="none" xmlns="http://www.w3.org/2000/svg">
<g clip-path="url(#clip0_547_37)">
<path d="M74.4886 7.40381C76.0872 7.40365 77.6512 7.88476 78.9889 8.78817C80.3265 9.69158 81.3796 10.978 82.0191 12.4899C82.078 12.628 82.1747 12.7453 82.2974 12.8275C82.4201 12.9096 82.5634 12.953 82.7096 12.9523C82.8146 12.9532 82.9185 12.93 83.0138 12.8844C83.1091 12.8389 83.1935 12.7722 83.2608 12.689C84.0324 11.7385 84.9963 10.9737 86.0847 10.4481C87.1731 9.92248 88.3597 9.64888 89.5614 9.64645C90.2637 9.64645 90.9789 9.7416 91.6909 9.93743C93.2374 10.3647 94.6292 11.2491 95.6951 12.4818C96.7609 13.7144 97.4544 15.2416 97.6902 16.8756C97.7104 17.0025 97.7613 17.1221 97.8382 17.2233C97.9151 17.3245 98.0156 17.404 98.1302 17.4545C98.2449 17.5049 98.3701 17.5246 98.4941 17.5118C98.6181 17.499 98.737 17.4541 98.8397 17.3812C100.228 16.3788 101.881 15.8408 103.575 15.84C104.967 15.84 106.377 16.2051 107.671 16.9751C109.058 17.8002 110.18 19.0258 110.9 20.501C111.621 21.9762 111.907 23.6365 111.724 25.2774C111.673 25.7366 112.045 26.1172 112.462 26.1172C112.546 26.1172 112.629 26.1018 112.708 26.0718C113.614 25.7319 114.57 25.5577 115.534 25.5573C116.612 25.5555 117.68 25.7735 118.676 26.1988C119.672 26.6241 120.576 27.2484 121.338 28.0356C122.47 29.2029 123.247 30.6865 123.573 32.3036C123.898 33.9208 123.758 35.6008 123.169 37.1368C122.981 37.6302 123.354 38.1701 123.856 38.1701L123.92 38.1668C125.48 38.022 127.047 38.3406 128.437 39.085C129.827 39.8293 130.982 40.9684 131.765 42.3677C132.565 43.7978 132.942 45.4381 132.85 47.0867C132.758 48.7353 132.201 50.3201 131.247 51.6459C130.929 52.0895 131.187 52.7456 131.714 52.8407C133.257 53.1179 134.69 53.8443 135.846 54.9341C137.001 56.024 137.831 57.432 138.237 58.9922C138.651 60.5878 138.604 62.2735 138.101 63.8416C137.598 65.4098 136.662 66.792 135.407 67.8179C134.989 68.1608 135.073 68.8623 135.558 69.0968C136.978 69.776 138.18 70.8598 139.023 72.2207C139.866 73.5815 140.313 75.1625 140.314 76.7773C140.313 78.4262 139.846 80.039 138.97 81.4179C138.094 82.7968 136.847 83.8818 135.381 84.5397C134.884 84.7643 134.772 85.4602 135.188 85.8198C136.391 86.8546 137.281 88.2227 137.754 89.7627C138.227 91.3027 138.263 92.9501 137.857 94.5104C137.442 96.1062 136.583 97.5417 135.387 98.6405C134.191 99.7393 132.71 100.453 131.126 100.695C130.597 100.777 130.33 101.429 130.637 101.881C131.537 103.202 132.053 104.76 132.122 106.374C132.192 107.987 131.813 109.587 131.03 110.985C130.229 112.415 129.04 113.573 127.609 114.316C126.178 115.058 124.568 115.352 122.977 115.162C122.854 115.151 122.729 115.171 122.616 115.222C122.502 115.273 122.402 115.353 122.325 115.454C122.249 115.554 122.198 115.673 122.177 115.8C122.157 115.926 122.167 116.056 122.208 116.177C122.745 117.693 122.852 119.337 122.514 120.913C122.176 122.49 121.408 123.934 120.3 125.074C119.539 125.861 118.634 126.486 117.638 126.911C116.642 127.336 115.575 127.554 114.497 127.553C113.462 127.553 112.436 127.353 111.473 126.963C111.39 126.929 111.302 126.911 111.213 126.911C111.11 126.912 111.01 126.934 110.916 126.977C110.823 127.02 110.739 127.082 110.67 127.159C110.601 127.237 110.548 127.328 110.514 127.427C110.48 127.527 110.466 127.632 110.474 127.737C110.613 129.346 110.303 130.961 109.581 132.394C108.859 133.827 107.755 135.016 106.399 135.823C105.155 136.566 103.742 136.958 102.304 136.958C100.538 136.957 98.8193 136.373 97.3986 135.291C97.2761 135.197 97.1276 135.146 96.975 135.147C96.8009 135.146 96.6319 135.208 96.4973 135.322C96.3628 135.436 96.2712 135.595 96.2384 135.772C95.9688 137.363 95.264 138.841 94.2071 140.032C93.1503 141.223 91.7854 142.078 90.2734 142.495C89.5789 142.688 88.8629 142.785 88.1439 142.785C86.9074 142.783 85.6874 142.493 84.5741 141.938C83.4607 141.383 82.4827 140.577 81.7124 139.579C81.6445 139.492 81.5583 139.421 81.4602 139.373C81.3621 139.326 81.2548 139.301 81.1463 139.302C81.0058 139.3 80.8677 139.34 80.7483 139.416C80.629 139.493 80.5334 139.603 80.4729 139.734C79.8056 141.214 78.7385 142.464 77.3997 143.334C76.0608 144.203 74.5072 144.656 72.9252 144.636C71.3433 144.617 69.8003 144.127 68.4816 143.226C67.1629 142.324 66.1246 141.048 65.4912 139.552C65.4322 139.414 65.3353 139.297 65.2124 139.214C65.0895 139.132 64.946 139.089 64.7996 139.09C64.6948 139.089 64.5912 139.112 64.4961 139.157C64.4009 139.203 64.3167 139.269 64.2495 139.352C63.4778 140.303 62.514 141.068 61.4256 141.593C60.3372 142.119 59.1506 142.392 57.9489 142.395C55.9789 142.396 54.0741 141.667 52.5817 140.34C51.0893 139.013 50.1088 137.177 49.8189 135.167C49.7988 135.04 49.7479 134.92 49.671 134.819C49.5941 134.718 49.4936 134.638 49.3789 134.588C49.2643 134.537 49.1391 134.518 49.0151 134.53C48.8911 134.543 48.7722 134.588 48.6695 134.661C47.2818 135.663 45.6292 136.201 43.9354 136.202C42.4969 136.202 41.084 135.81 39.8394 135.066C38.4528 134.241 37.3303 133.015 36.6102 131.54C35.89 130.065 35.6036 128.405 35.7862 126.764C35.8377 126.305 35.4656 125.925 35.0485 125.925C34.9644 125.925 34.8809 125.94 34.8019 125.969C33.8965 126.31 32.9402 126.484 31.9764 126.484C30.6379 126.484 29.3196 126.147 28.1363 125.502C26.9531 124.856 25.9408 123.922 25.1879 122.78C24.4349 121.638 23.9641 120.323 23.8165 118.951C23.6688 117.578 23.8488 116.189 24.3408 114.904C24.5296 114.412 24.1553 113.871 23.6546 113.871L23.5903 113.874C22.0305 114.019 20.4632 113.701 19.0732 112.956C17.6833 112.212 16.5286 111.073 15.7456 109.673C14.9453 108.243 14.5679 106.603 14.6599 104.954C14.752 103.306 15.3094 101.721 16.2635 100.395C16.5809 99.9516 16.3235 99.2956 15.796 99.1993C14.2358 98.9205 12.7872 98.1818 11.625 97.0723C10.4627 95.9629 9.63655 94.53 9.2461 92.9467C8.85566 91.3634 8.91766 89.6974 9.42461 88.1497C9.93156 86.6019 10.8618 85.2387 12.1031 84.2244C12.1988 84.1425 12.273 84.0372 12.319 83.918C12.3649 83.7988 12.3811 83.6696 12.366 83.5423C12.351 83.415 12.3052 83.2936 12.2328 83.1893C12.1604 83.085 12.0638 83.0012 11.9519 82.9454C10.5316 82.2664 9.32919 81.1824 8.48641 79.8213C7.64363 78.4603 7.19565 76.8789 7.19531 75.2638C7.19598 73.6147 7.66329 72.0017 8.53988 70.6228C9.41647 69.2438 10.6642 68.159 12.1299 67.5014C12.6263 67.2768 12.7379 66.5809 12.3229 66.2225C11.1061 65.176 10.209 63.7885 9.73978 62.2274C9.27058 60.6664 9.2494 58.9986 9.67878 57.4254C10.1082 55.8522 10.9698 54.4409 12.1595 53.3619C13.3493 52.2829 14.8164 51.5824 16.3836 51.3449C16.9133 51.2642 17.1803 50.6125 16.8736 50.16C15.9732 48.8397 15.4576 47.2811 15.3879 45.6682C15.3182 44.0553 15.6971 42.4556 16.4801 41.0578C17.2807 39.6264 18.4698 38.4681 19.9007 37.7256C21.3316 36.9831 22.9418 36.6888 24.5328 36.879C24.6565 36.8906 24.7811 36.8702 24.8951 36.8193C25.0091 36.7685 25.109 36.689 25.1856 36.5881C25.2622 36.4872 25.313 36.3681 25.3335 36.2416C25.3539 36.1152 25.3433 35.9855 25.3027 35.8644C24.8482 34.5847 24.7 33.2106 24.8706 31.8591C25.0412 30.5075 25.5257 29.2185 26.2827 28.1016C27.0398 26.9847 28.047 26.073 29.2189 25.4439C30.3907 24.8149 31.6924 24.4871 33.0133 24.4886C34.0406 24.4886 35.0678 24.6855 36.0371 25.0794C36.1197 25.1133 36.2078 25.1305 36.2966 25.1303C36.3987 25.1295 36.4996 25.1071 36.5929 25.0645C36.6863 25.022 36.7703 24.9601 36.8396 24.8828C36.9089 24.8054 36.9622 24.7143 36.996 24.6149C37.0299 24.5155 37.0436 24.41 37.0365 24.3049C36.8974 22.6962 37.2071 21.0801 37.929 19.6471C38.651 18.2141 39.7551 17.024 41.1111 16.2173C42.3556 15.4741 43.7681 15.083 45.2061 15.0832C46.9614 15.0832 48.6888 15.6652 50.1117 16.7516C50.2403 16.849 50.3894 16.8955 50.5352 16.8955C50.7095 16.8965 50.8786 16.8344 51.013 16.7199C51.1474 16.6055 51.2387 16.446 51.2708 16.2693C51.6034 14.3035 52.5979 12.522 54.0789 11.2388C55.5599 9.95555 57.4325 9.25293 59.3664 9.25479C60.6029 9.2574 61.823 9.54705 62.9364 10.1023C64.0497 10.6575 65.0276 11.464 65.7978 12.4622C65.9426 12.6503 66.1538 12.7399 66.364 12.7399C66.5049 12.7415 66.6434 12.7015 66.7631 12.6247C66.8827 12.5479 66.9787 12.4374 67.0395 12.3062C67.6995 10.8417 68.7512 9.6022 70.0709 8.73368C71.3906 7.86516 72.9233 7.40377 74.4886 7.40381" fill="white"/>
<path d="M74.975 6.67454e-07C71.6894 0.0042632 68.4833 1.04252 65.7846 2.97617C62.5776 1.69098 59.0572 1.49372 55.7342 2.41302C52.557 3.29474 49.7167 5.15691 47.5936 7.75021C47.0022 7.68158 46.4076 7.64723 45.8125 7.64732C42.9925 7.64732 40.2046 8.41847 37.7555 9.87668C34.9097 11.5753 32.6347 14.1303 31.2351 17.1998C27.8345 17.7267 24.6886 19.3688 22.2624 21.8831C19.9367 24.2859 18.3797 27.3658 17.8007 30.7088C14.6568 32.1309 12.0337 34.5495 10.312 37.6137C8.67048 40.5525 7.93973 43.9391 8.21784 47.3189C5.53489 49.5322 3.6082 52.5727 2.71927 55.9963C1.87181 59.2741 2.01623 62.7409 3.13316 65.9316C1.09784 68.7847 -2.01753e-06 72.2346 0 75.7773C0 79.2259 1.04868 82.5229 2.89404 85.2623C1.6437 88.5626 1.44945 92.189 2.33968 95.6114C3.19654 98.8866 5.00281 101.813 7.51658 104C7.14571 107.448 7.83094 110.93 9.47603 113.955C11.1211 116.981 13.6434 119.399 16.6887 120.87C17.2083 124.372 18.799 127.612 21.2287 130.115C23.5545 132.524 26.5435 134.135 29.7886 134.729C31.146 137.902 33.4292 140.559 36.3199 142.329C39.2106 144.099 42.5647 144.895 45.9144 144.604C48.0619 147.365 51.0074 149.347 54.322 150.261C57.5057 151.141 60.8737 150.996 63.9757 149.847C66.7429 151.938 70.0837 153.065 73.5135 153.064C76.799 153.059 80.0051 152.021 82.7038 150.087C84.5751 150.838 86.5657 151.223 88.5734 151.22C90.9197 151.219 93.2375 150.69 95.3653 149.67C97.4931 148.65 99.3798 147.163 100.894 145.313C101.485 145.382 102.08 145.416 102.676 145.416C105.496 145.416 108.284 144.645 110.733 143.187C113.579 141.489 115.854 138.934 117.253 135.864C120.654 135.337 123.8 133.695 126.226 131.181C128.551 128.777 130.108 125.698 130.688 122.356C133.832 120.934 136.455 118.516 138.176 115.451C139.818 112.512 140.549 109.126 140.271 105.746C142.954 103.532 144.881 100.491 145.769 97.0674C146.636 93.7372 146.45 90.2709 145.355 87.1343C147.391 84.2801 148.489 80.8291 148.488 77.2853C148.488 73.8389 147.439 70.5397 145.594 67.8014C146.845 64.5007 147.039 60.8737 146.148 57.4511C145.292 54.1759 143.486 51.2489 140.972 49.0626C141.343 45.6143 140.657 42.1329 139.012 39.1071C137.367 36.0813 134.845 33.6632 131.8 32.1924C131.28 28.6906 129.689 25.4517 127.26 22.9486C124.934 20.5386 121.945 18.9274 118.7 18.335C117.319 15.0962 114.972 12.3969 112 10.6301C109.147 8.93169 105.858 8.17425 102.575 8.4594C100.427 5.69854 97.4813 3.71681 94.1664 2.80247C90.983 1.91952 87.6139 2.06432 84.5128 3.21736C81.7458 1.12599 78.4049 -0.00100124 74.975 6.67454e-07M74.975 8.20383C76.567 8.20362 78.1246 8.68272 79.4567 9.5824C80.7888 10.4821 81.8375 11.7632 82.4744 13.2689C82.5998 13.5665 82.8818 13.7291 83.1628 13.7291C83.267 13.7297 83.3701 13.7064 83.4646 13.6611C83.5592 13.6158 83.6428 13.5495 83.7096 13.4669C84.4782 12.5204 85.4381 11.7588 86.5221 11.2355C87.606 10.7122 88.7878 10.4399 89.9845 10.4376C91.9465 10.4361 93.8436 11.1624 95.3297 12.484C96.8159 13.8056 97.792 15.6344 98.0801 17.6369C98.1002 17.7634 98.151 17.8827 98.2277 17.9836C98.3045 18.0845 98.4048 18.1637 98.5192 18.2138C98.6336 18.2639 98.7584 18.2834 98.8821 18.2703C99.0057 18.2573 99.1242 18.2121 99.2264 18.1391C100.608 17.1413 102.254 16.6056 103.941 16.6046C105.373 16.6051 106.78 16.9951 108.02 17.7353C109.401 18.5568 110.519 19.7772 111.236 21.2461C111.953 22.715 112.238 24.3682 112.056 26.0022C112.006 26.4603 112.376 26.8386 112.792 26.8386C112.875 26.8384 112.958 26.8231 113.036 26.7933C113.938 26.4546 114.891 26.2813 115.851 26.281C116.924 26.2793 117.988 26.4964 118.98 26.92C119.972 27.3436 120.873 27.9653 121.631 28.7494C122.759 29.9116 123.533 31.3889 123.857 32.9992C124.181 34.6094 124.041 36.2823 123.455 37.8117C123.268 38.303 123.64 38.8407 124.138 38.8407L124.203 38.8374C125.756 38.6931 127.317 39.0102 128.701 39.7512C130.085 40.4922 131.235 41.6262 132.015 43.0195C132.813 44.4435 133.189 46.0772 133.098 47.7192C133.006 49.3612 132.451 50.9397 131.501 52.26C131.183 52.7026 131.439 53.3553 131.965 53.4505C133.501 53.7264 134.928 54.4495 136.079 55.5347C137.23 56.6198 138.056 58.0218 138.461 59.5754C138.873 61.1642 138.826 62.8427 138.325 64.4042C137.825 65.9657 136.892 67.342 135.643 68.3634C135.227 68.7053 135.31 69.4034 135.793 69.6369C137.207 70.3128 138.405 71.392 139.244 72.7472C140.083 74.1024 140.53 75.677 140.53 77.2853C140.53 78.9275 140.065 80.5338 139.192 81.9071C138.319 83.2803 137.076 84.3607 135.617 85.0156C135.122 85.2391 135.01 85.9317 135.424 86.2901C136.622 87.3203 137.508 88.6826 137.98 90.2161C138.451 91.7497 138.487 93.3903 138.083 94.9443C137.669 96.5333 136.814 97.9629 135.623 99.0572C134.432 100.151 132.957 100.863 131.379 101.103C130.852 101.184 130.586 101.834 130.891 102.284C131.788 103.599 132.302 105.151 132.371 106.757C132.441 108.363 132.064 109.957 131.284 111.349C130.486 112.774 129.302 113.927 127.877 114.666C126.451 115.405 124.848 115.698 123.263 115.509C123.14 115.497 123.016 115.518 122.903 115.568C122.79 115.619 122.69 115.698 122.614 115.799C122.538 115.899 122.487 116.018 122.467 116.143C122.446 116.269 122.456 116.398 122.497 116.519C123.033 118.029 123.139 119.665 122.803 121.235C122.466 122.806 121.702 124.244 120.599 125.38C119.84 126.164 118.939 126.786 117.947 127.209C116.955 127.633 115.892 127.85 114.818 127.848C113.788 127.848 112.766 127.648 111.807 127.259C111.725 127.226 111.637 127.208 111.548 127.209C111.446 127.21 111.346 127.232 111.253 127.274C111.16 127.317 111.077 127.379 111.008 127.456C110.939 127.533 110.886 127.623 110.852 127.722C110.819 127.821 110.805 127.926 110.812 128.031C110.95 129.632 110.642 131.242 109.923 132.668C109.204 134.095 108.104 135.28 106.754 136.083C105.514 136.823 104.108 137.213 102.676 137.213C100.917 137.212 99.2056 136.63 97.7906 135.553C97.6688 135.459 97.521 135.409 97.3692 135.409C97.1957 135.408 97.0274 135.47 96.8934 135.584C96.7595 135.698 96.6683 135.856 96.6358 136.032C96.3671 137.616 95.665 139.088 94.6123 140.274C93.5596 141.46 92.2002 142.311 90.6944 142.727C90.0027 142.919 89.2896 143.016 88.5734 143.017C87.3421 143.014 86.127 142.725 85.0184 142.172C83.9097 141.62 82.9358 140.816 82.1688 139.822C82.1012 139.735 82.0153 139.665 81.9176 139.617C81.8199 139.569 81.713 139.545 81.6048 139.546C81.4646 139.544 81.3268 139.583 81.2078 139.66C81.0887 139.736 80.9936 139.847 80.9335 139.977C80.2691 141.451 79.2063 142.696 77.873 143.562C76.5397 144.428 74.9924 144.879 73.417 144.859C71.8416 144.84 70.305 144.352 68.9918 143.454C67.6786 142.556 66.6447 141.286 66.014 139.796C65.9552 139.658 65.8587 139.542 65.7364 139.46C65.6141 139.378 65.4713 139.335 65.3256 139.336C65.2215 139.335 65.1185 139.358 65.0239 139.403C64.9294 139.448 64.8457 139.514 64.7788 139.597C64.0102 140.543 63.0503 141.305 61.9663 141.828C60.8824 142.351 59.7006 142.624 58.5039 142.626C56.5421 142.628 54.6451 141.901 53.159 140.58C51.6729 139.259 50.6966 137.43 50.4083 135.428C50.3882 135.301 50.3374 135.182 50.2607 135.081C50.1839 134.98 50.0837 134.901 49.9692 134.851C49.8548 134.801 49.73 134.781 49.6063 134.794C49.4827 134.807 49.3642 134.853 49.262 134.926C47.8799 135.923 46.2341 136.459 44.5473 136.46C43.1149 136.46 41.7079 136.07 40.4684 135.329C39.0875 134.508 37.9696 133.287 37.2525 131.818C36.5354 130.349 36.2503 128.696 36.4324 127.061C36.4828 126.605 36.1128 126.227 35.6968 126.227C35.6134 126.227 35.5307 126.242 35.4523 126.271C34.5502 126.61 33.5976 126.783 32.6376 126.783C31.3046 126.784 29.9915 126.448 28.813 125.805C27.6345 125.163 26.6263 124.232 25.8763 123.095C25.1264 121.958 24.6574 120.649 24.5105 119.281C24.3635 117.914 24.5429 116.531 25.0331 115.252C25.2208 114.762 24.8487 114.223 24.3501 114.223L24.2857 114.226C22.7326 114.371 21.1718 114.053 19.7876 113.312C18.4033 112.571 17.2533 111.437 16.4732 110.044C15.6756 108.62 15.2994 106.986 15.3908 105.344C15.4823 103.702 16.0375 102.124 16.9879 100.804C17.0599 100.7 17.1054 100.578 17.1201 100.451C17.1347 100.325 17.1182 100.196 17.0719 100.077C17.0256 99.9585 16.9512 99.8538 16.8553 99.7727C16.7595 99.6916 16.6454 99.6368 16.5236 99.6132C14.9698 99.336 13.527 98.6007 12.3693 97.4959C11.2117 96.3912 10.3887 94.9642 9.99979 93.3875C9.61089 91.8107 9.67268 90.1514 10.1777 88.6101C10.6827 87.0688 11.6093 85.7112 12.8457 84.7014C12.941 84.6199 13.015 84.515 13.0608 84.3964C13.1065 84.2777 13.1227 84.1491 13.1078 84.0223C13.0928 83.8956 13.0473 83.7747 12.9752 83.6708C12.9032 83.567 12.8071 83.4834 12.6956 83.4279C11.2812 82.7518 10.0837 81.6724 9.24429 80.317C8.40493 78.9616 7.95874 77.3868 7.95836 75.7784C7.95897 74.1361 8.42433 72.5297 9.29731 71.1565C10.1703 69.7832 11.4129 68.7029 12.8725 68.0481C13.3658 67.8246 13.4784 67.132 13.0645 66.7757C11.8526 65.7338 10.959 64.3521 10.4917 62.7975C10.0244 61.2429 10.0033 59.5819 10.4311 58.0153C10.8588 56.4486 11.717 55.0432 12.9021 53.9689C14.0871 52.8946 15.5483 52.1973 17.1091 51.9613C17.231 51.9397 17.3458 51.887 17.4429 51.8079C17.54 51.7287 17.6164 51.6257 17.6649 51.5083C17.7134 51.3908 17.7326 51.2627 17.7208 51.1356C17.7089 51.0085 17.6663 50.8865 17.597 50.7808C16.7 49.466 16.1864 47.9139 16.1169 46.3076C16.0473 44.7014 16.4247 43.1082 17.2045 41.7162C18.0021 40.2908 19.1865 39.1374 20.6117 38.3982C22.0369 37.659 23.6406 37.3663 25.225 37.5562C25.3482 37.5678 25.4723 37.5474 25.5858 37.4969C25.6994 37.4463 25.7989 37.3671 25.8751 37.2666C25.9514 37.1662 26.002 37.0476 26.0224 36.9217C26.0428 36.7958 26.0322 36.6666 25.9917 36.546C25.5389 35.2716 25.3912 33.9031 25.561 32.5571C25.7308 31.2111 26.2132 29.9273 26.9671 28.8149C27.721 27.7025 28.7242 26.7945 29.8912 26.168C31.0583 25.5415 32.3547 25.2152 33.6702 25.2167C34.6932 25.2167 35.7161 25.4125 36.6811 25.8053C36.7637 25.8392 36.8518 25.8564 36.9406 25.8562C37.3481 25.8562 37.7148 25.4866 37.6762 25.0341C37.5377 23.4321 37.8463 21.8227 38.5654 20.3958C39.2845 18.9688 40.3842 17.7839 41.7347 16.9808C42.974 16.2407 44.3806 15.851 45.8125 15.8511C47.5603 15.8511 49.2813 16.4309 50.6978 17.5118C50.8265 17.6103 50.9744 17.6557 51.1192 17.6557C51.458 17.6557 51.7883 17.4123 51.8526 17.0328C52.184 15.0751 53.1746 13.3009 54.6498 12.0231C56.125 10.7453 57.99 10.0459 59.9161 10.0482C61.1472 10.0509 62.3619 10.3393 63.4704 10.892C64.5788 11.4447 65.5526 12.2476 66.3196 13.2412C66.4644 13.4293 66.6735 13.5178 66.8836 13.5178C67.0239 13.5195 67.1617 13.4798 67.2809 13.4033C67.4 13.3269 67.4954 13.2169 67.5559 13.0863C68.2132 11.6277 69.2607 10.3932 70.5751 9.52826C71.8895 8.66327 73.416 8.20376 74.975 8.20383" fill="#2F2F2F"/>
<path d="M206.283 112.366C207.437 112.366 208.415 112.829 209.216 113.755C210.017 114.68 210.418 115.869 210.418 117.323C210.418 118.776 209.889 119.967 208.831 120.892C207.774 121.817 206.411 122.279 204.744 122.279H203.014C199.872 122.279 197.004 121.437 194.408 119.751C191.811 118.066 189.776 115.769 188.301 112.862C186.827 109.954 186.089 106.683 186.089 103.048V78.5628H181.666C180.32 78.5628 179.23 78.1656 178.397 77.3723C177.564 76.5801 177.146 75.5888 177.146 74.3983C177.146 73.0773 177.564 72.0196 178.397 71.2263C179.23 70.4331 180.32 70.037 181.667 70.037H186.089V55.7624C186.089 54.3075 186.538 53.1182 187.436 52.1932C188.333 51.2683 189.487 50.8058 190.897 50.8058C192.308 50.8058 193.462 51.2683 194.36 52.1932C195.257 53.1182 195.705 54.3075 195.705 55.7624V70.037H203.879C205.225 70.037 206.315 70.4331 207.148 71.2263C207.982 72.0196 208.399 73.0773 208.399 74.3983C208.399 75.5888 207.982 76.5801 207.148 77.3723C206.315 78.1656 205.225 78.5628 203.878 78.5628H195.705V103.047C195.705 105.691 196.411 107.905 197.821 109.69C199.231 111.474 200.963 112.367 203.014 112.367H206.283V112.366ZM242.919 67.6571C247.856 67.6571 252.327 68.8631 256.333 71.275C260.34 73.688 263.514 76.9928 265.854 81.1882C268.194 85.3858 269.363 90.0614 269.363 95.2171V117.323C269.363 118.776 268.899 119.982 267.97 120.941C267.04 121.9 265.87 122.379 264.46 122.379C263.049 122.379 261.879 121.9 260.949 120.941C260.02 119.982 259.555 118.776 259.555 117.323V113.655C257.345 116.47 254.552 118.739 251.382 120.297C248.175 121.883 244.714 122.675 240.997 122.675C236.381 122.675 232.198 121.486 228.448 119.107C224.697 116.729 221.748 113.44 219.602 109.244C217.454 105.047 216.38 100.371 216.38 95.216C216.38 90.0614 217.533 85.3858 219.842 81.1893C222.149 76.9928 225.338 73.688 229.41 71.2761C233.48 68.8642 237.984 67.6583 242.92 67.6583L242.919 67.6571ZM242.919 113.755C246.125 113.755 249.026 112.945 251.622 111.325C254.219 109.706 256.254 107.492 257.728 104.683C259.203 101.874 259.94 98.72 259.94 95.216C259.94 91.7132 259.203 88.5412 257.728 85.7C256.254 82.8577 254.219 80.6273 251.622 79.0086C249.026 77.3889 246.125 76.5801 242.919 76.5801C239.714 76.5801 236.814 77.3889 234.218 79.0086C231.621 80.6273 229.57 82.8588 228.063 85.7C226.556 88.5412 225.804 91.7132 225.804 95.216C225.804 98.7189 226.556 101.874 228.063 104.683C229.57 107.492 231.621 109.706 234.218 111.325C236.813 112.945 239.714 113.755 242.919 113.755ZM299.749 122.676C295.391 122.676 291.288 121.982 287.442 120.594C283.596 119.207 280.583 117.389 278.403 115.142C277.57 114.282 277.152 113.259 277.152 112.068C277.152 110.483 277.794 109.194 279.076 108.203C280.294 107.278 281.416 106.815 282.441 106.815C283.723 106.815 284.941 107.409 286.095 108.599C287.313 109.987 289.14 111.193 291.577 112.217C294.013 113.242 296.609 113.755 299.365 113.755C303.02 113.755 305.856 113.126 307.875 111.87C309.895 110.615 310.904 108.93 310.904 106.814C310.904 104.766 309.911 103.064 307.923 101.709C305.936 100.355 302.57 99.2145 297.827 98.2896C285.518 95.8445 279.365 90.6223 279.365 82.6265C279.365 79.3881 280.294 76.6454 282.152 74.3983C284.012 72.1524 286.448 70.4663 289.461 69.3422C292.474 68.2192 295.68 67.6583 299.077 67.6583C303.244 67.6583 306.977 68.352 310.279 69.7394C313.582 71.1279 316.194 73.0441 318.117 75.4892C318.949 76.5469 319.366 77.6035 319.366 78.6612C319.366 79.7853 318.822 80.8087 317.732 81.7348C317.027 82.2636 316.129 82.528 315.04 82.528C313.372 82.528 311.866 81.8996 310.52 80.6439C308.917 79.1237 307.218 78.0505 305.424 77.4221C303.629 76.7948 301.449 76.4806 298.884 76.4806C295.935 76.4806 293.515 76.9928 291.625 78.0173C289.733 79.0418 288.788 80.479 288.788 82.3289C288.788 83.651 289.109 84.7585 289.749 85.6503C290.391 86.542 291.609 87.3685 293.404 88.1285C295.199 88.8886 297.795 89.6321 301.193 90.359C308.179 91.8128 313.132 93.8286 316.049 96.4065C318.965 98.9844 320.424 102.321 320.424 106.419C320.424 109.459 319.623 112.217 318.021 114.695C316.418 117.173 314.062 119.124 310.952 120.544C307.843 121.965 304.109 122.676 299.75 122.676H299.749ZM369.177 115.142C369.882 115.935 370.235 116.927 370.235 118.116C370.235 119.57 369.658 120.793 368.504 121.784C367.542 122.577 366.517 122.973 365.427 122.973C364.017 122.973 362.863 122.379 361.965 121.189L343.694 97.8935L338.887 102.255V117.422C338.887 118.876 338.454 120.049 337.59 120.941C336.723 121.833 335.584 122.279 334.176 122.279C332.764 122.279 331.627 121.833 330.761 120.941C329.896 120.049 329.464 118.876 329.464 117.422V49.7149C329.464 48.2611 329.896 47.0884 330.761 46.1966C331.627 45.3038 332.764 44.8579 334.176 44.8579C335.586 44.8579 336.723 45.3038 337.589 46.1966C338.454 47.0884 338.886 48.2611 338.886 49.7149V90.0614L362.254 68.55C363.087 67.6903 364.081 67.2611 365.235 67.2611C366.58 67.2611 367.671 67.7899 368.504 68.8476C369.337 69.7062 369.754 70.7307 369.754 71.92C369.754 73.3086 369.241 74.4315 368.216 75.2912L350.522 91.5473L369.177 115.141V115.142ZM399.852 67.6583C404.788 67.6583 409.26 68.8642 413.266 71.2761C417.273 73.688 420.446 76.9928 422.786 81.1893C425.126 85.3858 426.296 90.0625 426.296 95.216V117.323C426.296 118.776 425.831 119.982 424.902 120.941C423.972 121.9 422.803 122.379 421.391 122.379C419.981 122.379 418.812 121.9 417.882 120.941C416.952 119.982 416.488 118.776 416.488 117.323V113.655C414.277 116.47 411.484 118.739 408.314 120.297C405.108 121.883 401.647 122.675 397.929 122.675C393.313 122.675 389.13 121.486 385.38 119.107C381.63 116.729 378.681 113.44 376.534 109.244C374.385 105.047 373.312 100.371 373.312 95.216C373.312 90.0614 374.466 85.3858 376.773 81.1893C379.082 76.9928 382.271 73.688 386.341 71.2761C390.413 68.8642 394.916 67.6583 399.852 67.6583ZM399.852 113.755C403.058 113.755 405.958 112.945 408.554 111.325C411.15 109.706 413.186 107.492 414.661 104.683C416.135 101.874 416.872 98.72 416.872 95.216C416.872 91.7132 416.135 88.5412 414.661 85.7C413.186 82.8577 411.15 80.6273 408.554 79.0086C405.958 77.3889 403.057 76.5801 399.852 76.5801C396.646 76.5801 393.746 77.3889 391.149 79.0086C388.553 80.6273 386.502 82.8588 384.994 85.7C383.489 88.5412 382.735 91.7132 382.735 95.216C382.735 98.7189 383.489 101.874 384.996 104.683C386.502 107.492 388.553 109.706 391.15 111.325C393.745 112.945 396.647 113.755 399.852 113.755ZM482.934 44.8579C484.408 44.8579 485.593 45.3204 486.492 46.2453C487.389 47.1703 487.838 48.3928 487.838 49.913V95.1176C487.838 100.272 486.669 104.948 484.328 109.144C481.988 113.341 478.814 116.646 474.808 119.057C470.801 121.469 466.33 122.675 461.394 122.675C456.458 122.675 451.954 121.469 447.884 119.057C443.813 116.646 440.624 113.341 438.316 109.144C436.007 104.948 434.854 100.271 434.854 95.1176C434.854 89.9618 435.928 85.2863 438.075 81.0897C440.223 76.8932 443.171 73.6062 446.921 71.2263C450.672 68.8476 454.856 67.6583 459.471 67.6583C463.189 67.6583 466.651 68.4504 469.856 70.037C473.026 71.5945 475.819 73.8637 478.03 76.6786V49.9141C478.03 48.3939 478.494 47.1714 479.424 46.2464C480.353 45.3215 481.523 44.859 482.934 44.859V44.8579ZM461.394 113.755C464.599 113.755 467.5 112.945 470.097 111.325C472.692 109.706 474.728 107.475 476.202 104.634C477.677 101.792 478.415 98.6204 478.415 95.1176C478.415 91.6148 477.677 88.4594 476.202 85.6503C474.728 82.8411 472.693 80.6273 470.097 79.0086C467.5 77.3889 464.599 76.5801 461.394 76.5801C458.188 76.5801 455.288 77.3889 452.692 79.0086C450.095 80.6273 448.044 82.8411 446.537 85.6503C445.031 88.4594 444.278 91.6137 444.278 95.1176C444.278 98.6204 445.031 101.792 446.537 104.634C448.044 107.476 450.095 109.706 452.692 111.325C455.288 112.945 458.188 113.755 461.394 113.755ZM548.995 94.3243C548.995 95.58 548.578 96.6212 547.745 97.4465C546.912 98.273 545.854 98.6857 544.571 98.6857H508.032C508.736 103.313 510.772 107.047 514.137 109.888C517.504 112.73 521.621 114.151 526.494 114.151C528.417 114.151 530.42 113.787 532.504 113.06C534.587 112.333 536.302 111.441 537.649 110.383C538.546 109.657 539.603 109.294 540.822 109.294C542.04 109.294 543.001 109.623 543.707 110.285C544.861 111.276 545.438 112.399 545.438 113.655C545.438 114.844 544.925 115.836 543.899 116.629C541.719 118.414 539.01 119.867 535.773 120.99C532.535 122.114 529.443 122.676 526.494 122.676C521.238 122.676 516.525 121.504 512.358 119.157C508.191 116.812 504.938 113.555 502.598 109.392C500.259 105.229 499.089 100.503 499.089 95.216C499.089 89.9297 500.193 85.1878 502.406 80.9913C504.617 76.7948 507.695 73.5232 511.638 71.1777C515.58 68.831 520.052 67.6583 525.052 67.6583C529.987 67.6583 534.252 68.7812 537.841 71.0283C541.431 73.2743 544.187 76.4142 546.111 80.4458C548.033 84.4775 548.995 89.1033 548.995 94.3243ZM525.052 76.1829C520.372 76.1829 516.573 77.5051 513.657 80.1482C510.74 82.7925 508.896 86.3274 508.127 90.7551H540.148C539.571 86.3274 537.969 82.7914 535.341 80.1482C532.712 77.504 529.283 76.1829 525.052 76.1829Z" fill="white"/>
<path d="M105.255 110.243C97.749 110.243 98.3387 99.3199 105.255 99.3199C112.172 99.3199 112.761 110.243 105.255 110.243ZM43.2318 110.243C35.7259 110.243 36.3146 99.3199 43.2318 99.3199C50.1479 99.3199 50.7376 110.243 43.2318 110.243ZM127.932 69.8846H125.39C120.829 69.8846 116.912 67.0744 115.16 63.0471C113.407 67.0744 109.49 69.8846 104.931 69.8846C100.371 69.8846 96.4547 67.0744 94.7016 63.0471C92.9495 67.0744 89.0325 69.8846 84.4722 69.8846C79.9129 69.8846 75.9959 67.0744 74.2428 63.0471C72.4907 67.0744 68.5737 69.8846 64.0144 69.8846C59.4541 69.8846 55.5382 67.0744 53.785 63.0471C52.0318 67.0744 48.1159 69.8846 43.5556 69.8846C38.9952 69.8846 35.0793 67.0744 33.3262 63.0471C31.5741 67.0744 27.6571 69.8846 23.0968 69.8846H20.5823C16.7683 74.1154 19.1884 77.689 28.6071 77.689V99.4117C28.6071 119.828 51.4132 130.035 74.2181 130.035C97.0241 130.035 119.83 119.828 119.83 99.4117V77.6901C129.256 77.6901 131.717 74.1165 127.932 69.8857" fill="#2F2F2F"/>
</g>
<defs>
<clipPath id="clip0_547_37">
<rect width="549" height="156" fill="white"/>
</clipPath>
</defs>
</svg>
